<svg version="1.1" id="レイヤー_1" xmlns="http://www.w3.org/2000/svg" x="0" y="0" width="425.197" height="283.465" xml:space="preserve"><style>.st0{fill:#e94709}.st2{fill:#5a0000}</style><path class="st0" d="M364.034 5.388l-4.255 75.413-29.076-40.745 24.178 44.585-61.802 1.422 61.86 4.014-28.695 36.579 32.828-30.96 6.131 70.089 2.261-70.522 26.984 31.244-24.269-36.331 53.919-1.178-54.478-4.851 35.731-49.664-38.979 42.17z"/><path class="st0" d="M343.152 157.672c5.276 75.297-49.529 120.404-105.642 120.404-71.955 0-236.411-50.092-236.411-120.889 0-27.645 4.476-73.313 169.663-73.313s169.737 35.94 172.39 73.798z"/><path class="st2" d="M38.975 124.158l5.575.138-2.682 23.586-8.474-1.258 1.315 6.719 4.066 1.31-7.633 24.098-12.026.738 23.174 10.837 5.552-30.929 12.912 4.384-3.664 43.532 14.761 1.581 2.362-91.988-31.606-2.435-3.632 9.687zm25.904 1.874l-2.725 24.947-8.95-1.3 1.723-25.106 9.952 1.459zm131.677 43.549l14.343-1.589-2.483-9.901-13.246 3.542 1.093-23.16 20.707-4.069v-11.718l-29.629.56-2.009 40.371-6.693 1.35 2.539 5.136 3.786-.128-1.764 24.932 35.373-2.052 1.096-13.601-24.568 5.028z"/><path class="st2" d="M309.913 186.374c-11.96-14.217-21.221-13.886-28.289-20.895-16.317-16.182-.728-34.487 5.848-34.487s1.074 22.977 1.074 22.977l29.127-6.549-11.951-3.476c-4.464-46.162-24.97-31.673-32.176-24.328-4.738 4.828-23.325 35.72 9.454 60.429 42.438 31.99-48.993 82.124-81.265 24.35 0 0-14.98 11.258-18.817 12.288l13.493-2.575c74.391 93.551 136.318-.614 113.502-27.734z"/><path class="st2" d="M259.493 160.414c3.069-1.754-.293-29.226-5.59-29.388-5.297-.162-29.973-1.218-29.973-1.218l2.779 12.533-.206 13.013c-7.148 1.606-12.959 1.754-12.959 1.754l2.599 9.198s3.782-.321 9.123-.842l.713 35.372 11.525-1.218-3.819-35.018c.735-.079 1.476-.161 2.221-.244l15.572 47.75 22.067-.573-28.883-48.229c7.114-.93 13.196-1.956 14.831-2.89zm-25.477-19.687c7.23-1.022 17.54-.986 18.722 6.274 1.263 7.754-6.357 6.468-17.787 7.754l-.935-14.028zm-75.05 25.811c7.451-2.391 15.863-7.119 17.023-7.477 2.128-.658 3.691-23.781 3.472-25.097-.219-1.315-36.873-.293-36.873-.293l3.198 4.525-1.306 31.235c-2.976.19-4.941.324-4.941.324l-1.315 5.696 6.008-.081-.019 30.641c-.247-.034-5.989 5.624-5.989 5.624l39.029-4.325s-3.997-40.132-4.061-41.009c-.029-.392-6.78-.15-14.226.237zm14.795-17.446c0 8.154-13.921 10.304-18.697 10.859l1.301-17.626c13.766-1.435 17.396-1.073 17.396 6.767zm-6.344 43.09c-1.597.912-11.188 7.156-15.027 7.079l-.555-24.096 17.191-.128s1.461 15.391-1.609 17.145zm-31.669-61.09l.959-2.7-21.117-1.042-10.954 35.831-7.915-32.511 1.133-3.187-10.783-.133-4.656-.13.778 10.393-5.377 72.431 1 6.638 16.068 3.209.128-60.907 6.811 13.4-3.39 11.088 11.903-.418 8.044-47.699 4.939 1.693.407 55.575 1.146 7.748 11.599-1.043-5.955-65.771z"/></svg>