<?xml version="1.0" encoding="utf-8"?>
<!-- Generator: Adobe Illustrator 22.0.1, SVG Export Plug-In . SVG Version: 6.00 Build 0)  -->
<svg version="1.1" id="レイヤー_1" xmlns="http://www.w3.org/2000/svg" xmlns:xlink="http://www.w3.org/1999/xlink" x="0px"
	 y="0px" width="425.197px" height="283.465px" viewBox="0 0 425.197 283.465" style="enable-background:new 0 0 425.197 283.465;"
	 xml:space="preserve">
<style type="text/css">
	.st0{fill:#E94709;}
	.st1{fill-rule:evenodd;clip-rule:evenodd;fill:#5A0000;}
	.st2{fill:#5A0000;}
	.st3{fill:#FFFFFF;}
</style>
<g>
	<polygon class="st0" points="364.034,5.388 359.779,80.801 330.703,40.056 354.881,84.641 293.079,86.063 354.939,90.077 
		326.244,126.656 359.072,95.696 365.203,165.785 367.464,95.263 394.448,126.507 370.179,90.176 424.098,88.998 369.62,84.147 
		405.351,34.483 366.372,76.653 	"/>
	<path class="st0" d="M343.152,157.672c5.276,75.297-49.529,120.404-105.642,120.404c-71.955,0-236.411-50.092-236.411-120.889
		c0-27.645,4.476-73.313,169.663-73.313S340.499,119.814,343.152,157.672z"/>
	<g>
		<path class="st2" d="M38.975,124.158l5.575,0.138l-2.682,23.586l-8.474-1.258l1.315,6.719l4.066,1.31l-7.633,24.098l-12.026,0.738
			l23.174,10.837l5.552-30.929l12.912,4.384l-3.664,43.532l14.761,1.581l2.362-91.988l-31.606-2.435L38.975,124.158z
			 M64.879,126.032l-2.725,24.947l-8.95-1.3l1.723-25.106L64.879,126.032z"/>
		<polygon class="st2" points="196.556,169.581 210.899,167.992 208.416,158.091 195.17,161.633 196.263,138.473 216.97,134.404 
			216.97,122.686 187.341,123.246 185.332,163.617 178.639,164.967 181.178,170.103 184.964,169.975 183.2,194.907 218.573,192.855 
			219.669,179.254 195.101,184.282 		"/>
		<path class="st2" d="M309.913,186.374c-11.96-14.217-21.221-13.886-28.289-20.895c-16.317-16.182-0.728-34.487,5.848-34.487
			c6.576,0,1.074,22.977,1.074,22.977l29.127-6.549l-11.951-3.476c-4.464-46.162-24.97-31.673-32.176-24.328
			c-4.738,4.828-23.325,35.72,9.454,60.429c42.438,31.99-48.993,82.124-81.265,24.35c0,0-14.98,11.258-18.817,12.288l13.493-2.575
			C270.802,307.659,332.729,213.494,309.913,186.374z"/>
		<path class="st2" d="M259.493,160.414c3.069-1.754-0.293-29.226-5.59-29.388c-5.297-0.162-29.973-1.218-29.973-1.218l2.779,12.533
			l-0.206,13.013c-7.148,1.606-12.959,1.754-12.959,1.754l2.599,9.198c0,0,3.782-0.321,9.123-0.842l0.713,35.372l11.525-1.218
			l-3.819-35.018c0.735-0.079,1.476-0.161,2.221-0.244l15.572,47.75l22.067-0.573l-28.883-48.229
			C251.776,162.374,257.858,161.348,259.493,160.414z M234.016,140.727c7.23-1.022,17.54-0.986,18.722,6.274
			c1.263,7.754-6.357,6.468-17.787,7.754L234.016,140.727z"/>
		<path class="st2" d="M158.966,166.538c7.451-2.391,15.863-7.119,17.023-7.477c2.128-0.658,3.691-23.781,3.472-25.097
			c-0.219-1.315-36.873-0.293-36.873-0.293l3.198,4.525l-1.306,31.235c-2.976,0.19-4.941,0.324-4.941,0.324l-1.315,5.696
			l6.008-0.081l-0.019,30.641c-0.247-0.034-5.989,5.624-5.989,5.624l39.029-4.325c0,0-3.997-40.132-4.061-41.009
			C173.163,165.909,166.412,166.151,158.966,166.538z M173.761,149.092c0,8.154-13.921,10.304-18.697,10.859l1.301-17.626
			C170.131,140.89,173.761,141.252,173.761,149.092z M167.417,192.182c-1.597,0.912-11.188,7.156-15.027,7.079l-0.555-24.096
			l17.191-0.128C169.026,175.037,170.487,190.428,167.417,192.182z"/>
		<polygon class="st2" points="135.748,131.092 136.707,128.392 115.59,127.35 104.636,163.181 96.721,130.67 97.854,127.483 
			87.071,127.35 87.071,127.35 82.415,127.22 83.193,137.613 77.816,210.044 78.816,216.682 94.884,219.891 95.012,158.984 
			101.823,172.384 98.433,183.472 110.336,183.054 118.38,135.355 123.319,137.048 123.726,192.623 124.872,200.371 
			136.471,199.328 130.516,133.557 		"/>
	</g>
</g>
</svg>
